<?xml version="1.0" standalone="no"?>
<!DOCTYPE svg PUBLIC "-//W3C//DTD SVG 20010904//EN"
 "http://www.w3.org/TR/2001/REC-SVG-20010904/DTD/svg10.dtd">
<svg version="1.0" xmlns="http://www.w3.org/2000/svg"
 width="860.000000pt" height="896.000000pt" viewBox="0 0 860.000000 896.000000"
 preserveAspectRatio="xMidYMid meet">
<metadata>
Created by potrace 1.16, written by Peter Selinger 2001-2019
</metadata>
<g transform="translate(0.000000,896.000000) scale(0.100000,-0.100000)"
fill="#66fcf1" stroke="none">
<path d="M3880 8549 c-287 -8 -383 -23 -667 -105 -1294 -370 -2311 -1351
-2721 -2624 -313 -971 -238 -2044 206 -2960 306 -631 778 -1174 1372 -1579
538 -366 1221 -610 1850 -662 221 -17 657 -15 825 5 489 59 920 189 1350 406
470 237 861 538 1205 927 294 334 490 645 686 1089 303 689 393 1568 239 2330
-302 1492 -1429 2696 -2888 3083 -264 70 -341 81 -642 91 -310 11 -438 10
-815 -1z m1768 -2622 c732 -733 1332 -1340 1332 -1349 0 -8 -99 -116 -219
-239 l-220 -224 -1120 1120 -1121 1120 -1121 -1120 -1121 -1120 -219 225
c-120 123 -219 230 -219 238 0 20 2660 2682 2680 2682 8 0 615 -600 1348
-1333z m442 526 l-1 -648 -96 100 c-53 55 -238 251 -410 435 l-313 335 0 206
c0 113 3 209 7 212 3 4 188 7 410 7 l403 0 0 -647z m-1721 -485 c42 -40 290
-282 551 -538 424 -415 630 -617 1303 -1280 l187 -185 -2 -1005 -3 -1005 -685
2 c-377 2 -691 5 -697 8 -10 3 -13 191 -13 890 l0 885 -700 0 -700 0 0 -895 0
-895 -705 0 -705 0 0 1018 0 1018 193 190 c105 104 444 437 752 739 308 302
691 679 850 837 160 158 292 288 294 288 3 0 39 -33 80 -72z"/>
</g>
</svg>
